<?xml version="1.0" standalone="no"?>
<svg xmlns:xlink="http://www.w3.org/1999/xlink" id="wave" style="transform:rotate(180deg); transition: 0.3s" viewBox="0 0 1440 150" version="1.1" xmlns="http://www.w3.org/2000/svg"><defs><linearGradient id="sw-gradient-0" x1="0" x2="0" y1="1" y2="0"><stop stop-color="rgba(184.74, 184.74, 184.74, 1)" offset="0%"/><stop stop-color="rgba(70.901, 65.22, 52.663, 1)" offset="100%"/></linearGradient></defs><path style="transform:translate(0, 0px); opacity:1" fill="url(#sw-gradient-0)" d="M0,105L18.5,107.5C36.9,110,74,115,111,117.5C147.7,120,185,120,222,105C258.5,90,295,60,332,62.5C369.2,65,406,100,443,117.5C480,135,517,135,554,125C590.8,115,628,95,665,95C701.5,95,738,115,775,115C812.3,115,849,95,886,87.5C923.1,80,960,85,997,77.5C1033.8,70,1071,50,1108,35C1144.6,20,1182,10,1218,20C1255.4,30,1292,60,1329,72.5C1366.2,85,1403,80,1440,82.5C1476.9,85,1514,95,1551,92.5C1587.7,90,1625,75,1662,57.5C1698.5,40,1735,20,1772,17.5C1809.2,15,1846,30,1883,40C1920,50,1957,55,1994,60C2030.8,65,2068,70,2105,82.5C2141.5,95,2178,115,2215,122.5C2252.3,130,2289,125,2326,102.5C2363.1,80,2400,40,2437,30C2473.8,20,2511,40,2548,62.5C2584.6,85,2622,110,2640,122.5L2658.5,135L2658.5,150L2640,150C2621.5,150,2585,150,2548,150C2510.8,150,2474,150,2437,150C2400,150,2363,150,2326,150C2289.2,150,2252,150,2215,150C2178.5,150,2142,150,2105,150C2067.7,150,2031,150,1994,150C1956.9,150,1920,150,1883,150C1846.2,150,1809,150,1772,150C1735.4,150,1698,150,1662,150C1624.6,150,1588,150,1551,150C1513.8,150,1477,150,1440,150C1403.1,150,1366,150,1329,150C1292.3,150,1255,150,1218,150C1181.5,150,1145,150,1108,150C1070.8,150,1034,150,997,150C960,150,923,150,886,150C849.2,150,812,150,775,150C738.5,150,702,150,665,150C627.7,150,591,150,554,150C516.9,150,480,150,443,150C406.2,150,369,150,332,150C295.4,150,258,150,222,150C184.6,150,148,150,111,150C73.8,150,37,150,18,150L0,150Z"/><defs><linearGradient id="sw-gradient-1" x1="0" x2="0" y1="1" y2="0"><stop stop-color="rgba(102.776, 96.819, 94.906, 1)" offset="0%"/><stop stop-color="rgba(61.793, 60.646, 58.108, 1)" offset="100%"/></linearGradient></defs><path style="transform:translate(0, 50px); opacity:0.9" fill="url(#sw-gradient-1)" d="M0,90L18.5,97.5C36.9,105,74,120,111,107.5C147.7,95,185,55,222,40C258.5,25,295,35,332,50C369.2,65,406,85,443,87.5C480,90,517,75,554,67.5C590.8,60,628,60,665,52.5C701.5,45,738,30,775,20C812.3,10,849,5,886,10C923.1,15,960,30,997,40C1033.8,50,1071,55,1108,47.5C1144.6,40,1182,20,1218,30C1255.4,40,1292,80,1329,82.5C1366.2,85,1403,50,1440,40C1476.9,30,1514,45,1551,50C1587.7,55,1625,50,1662,45C1698.5,40,1735,35,1772,50C1809.2,65,1846,100,1883,102.5C1920,105,1957,75,1994,55C2030.8,35,2068,25,2105,20C2141.5,15,2178,15,2215,20C2252.3,25,2289,35,2326,55C2363.1,75,2400,105,2437,102.5C2473.8,100,2511,65,2548,62.5C2584.6,60,2622,90,2640,105L2658.5,120L2658.5,150L2640,150C2621.5,150,2585,150,2548,150C2510.8,150,2474,150,2437,150C2400,150,2363,150,2326,150C2289.2,150,2252,150,2215,150C2178.5,150,2142,150,2105,150C2067.7,150,2031,150,1994,150C1956.9,150,1920,150,1883,150C1846.2,150,1809,150,1772,150C1735.4,150,1698,150,1662,150C1624.6,150,1588,150,1551,150C1513.8,150,1477,150,1440,150C1403.1,150,1366,150,1329,150C1292.3,150,1255,150,1218,150C1181.5,150,1145,150,1108,150C1070.8,150,1034,150,997,150C960,150,923,150,886,150C849.2,150,812,150,775,150C738.5,150,702,150,665,150C627.7,150,591,150,554,150C516.9,150,480,150,443,150C406.2,150,369,150,332,150C295.4,150,258,150,222,150C184.6,150,148,150,111,150C73.8,150,37,150,18,150L0,150Z"/><defs><linearGradient id="sw-gradient-2" x1="0" x2="0" y1="1" y2="0"><stop stop-color="rgba(64.07, 49.131, 44.334, 1)" offset="0%"/><stop stop-color="rgba(107.329, 103.826, 96.081, 1)" offset="100%"/></linearGradient></defs><path style="transform:translate(0, 100px); opacity:0.8" fill="url(#sw-gradient-2)" d="M0,120L18.5,105C36.9,90,74,60,111,42.5C147.7,25,185,20,222,35C258.5,50,295,85,332,85C369.2,85,406,50,443,40C480,30,517,45,554,45C590.8,45,628,30,665,37.5C701.5,45,738,75,775,77.5C812.3,80,849,55,886,47.5C923.1,40,960,50,997,55C1033.8,60,1071,60,1108,70C1144.6,80,1182,100,1218,107.5C1255.4,115,1292,110,1329,100C1366.2,90,1403,75,1440,67.5C1476.9,60,1514,60,1551,55C1587.7,50,1625,40,1662,47.5C1698.5,55,1735,80,1772,97.5C1809.2,115,1846,125,1883,122.5C1920,120,1957,105,1994,105C2030.8,105,2068,120,2105,105C2141.5,90,2178,45,2215,45C2252.3,45,2289,90,2326,90C2363.1,90,2400,45,2437,30C2473.8,15,2511,30,2548,30C2584.6,30,2622,15,2640,7.5L2658.5,0L2658.5,150L2640,150C2621.5,150,2585,150,2548,150C2510.8,150,2474,150,2437,150C2400,150,2363,150,2326,150C2289.2,150,2252,150,2215,150C2178.5,150,2142,150,2105,150C2067.7,150,2031,150,1994,150C1956.9,150,1920,150,1883,150C1846.2,150,1809,150,1772,150C1735.4,150,1698,150,1662,150C1624.6,150,1588,150,1551,150C1513.8,150,1477,150,1440,150C1403.1,150,1366,150,1329,150C1292.3,150,1255,150,1218,150C1181.5,150,1145,150,1108,150C1070.8,150,1034,150,997,150C960,150,923,150,886,150C849.2,150,812,150,775,150C738.5,150,702,150,665,150C627.7,150,591,150,554,150C516.9,150,480,150,443,150C406.2,150,369,150,332,150C295.4,150,258,150,222,150C184.6,150,148,150,111,150C73.8,150,37,150,18,150L0,150Z"/></svg>